<svg id="Layer_1" data-name="Layer 1" xmlns="http://www.w3.org/2000/svg" viewBox="0 0 404.08 745.02"><defs><style>.cls-1{fill:#cd3a3a;}</style></defs><path class="cls-1" d="M324.88,368.51c-3.15-5.85-.72-11,5.68-11.15,25.93-.61,51.86-1,77.79-1.46,1.7,0,4.11-.13,5,.86,1.82,2.1,3.81,4.85,3.92,7.42.15,3.45-2.64,5.81-6.32,6-4.94.19-9.89,0-14.92,0v6.51h55.89V369c-5.41,0-11,0-16.5,0s-8.94-2.59-9.05-7,3.56-7.42,9.26-7.5c23.21-.35,46.42-.75,69.64-.95,3.22,0,5.2-.91,5.88-4.14l-.15.15q4.34-6.54,8.69-13.08c-9.44-12.16-7.82-25.74-5.77-39A130.51,130.51,0,0,1,535,243.33c3.49-5.11,7.92-9.58,12.11-14.57l-4.53-.63V196.26l53.4,1.52V230h-8c-2.39,17.56-4.72,34.65-7.11,52.19A40.34,40.34,0,0,1,598.61,296a39.78,39.78,0,0,1,.78,45.18A38.87,38.87,0,0,1,557,357.37c-4-1.1-5.64-.21-7.8,3.22-6.81,10.82-15.2,20.76-21,32.06-5.93,11.51-14.63,14.64-26.24,13.68a4.3,4.3,0,0,0-1.37.34c1.08,9.42-1.65,12.37-11.4,12.38l-22.11.05c-10.16,0-11.94-1.66-12.34-11.46H396.47a42.09,42.09,0,0,1,1.71,5.19c.84,4.68-2.89,9-8.17,9.09-9,.21-17.93.17-26.9.22-9.82.05-12.8-3.92-9.88-13.41h-4.46c0,2.76-.09,5.44,0,8.12.49,12.9-5.45,20.21-18.17,22.78-1.19.24-2.81,2.46-2.82,3.76q0,12.27.67,24.53a8.17,8.17,0,0,0,2.6,5c4.2,3.71,7.8,7.55,8.14,13.59a4.54,4.54,0,0,0,2.26,3c4,2.22,5.93,5.5,4.88,9.95s-4.27,6.43-8.88,6.49c-18.57.23-37.14.58-55.71.83-6.81.09-10.39-2.34-11.12-7.3-.68-4.68,1.94-7.93,8.56-10.3-2.43-7.53.5-13.21,6.52-17.82.77-.59,1.07-2.19,1.08-3.33.09-8.48.05-16.95.05-25.49-7.39,0-13.55-.08-19.71,0-5.12.09-10.24.54-15.35.59-10,.09-17.91-6.21-19.66-16.17-.94-5.33-.58-10.88-1.26-16.27a6.94,6.94,0,0,0-3-4.6c-6.15-3.37-12.55-6.28-18.83-9.45-6.51-3.28-8.65-8.67-5.9-14.56s8-7.47,14.79-4.44c5.4,2.4,10.62,5.23,16,7.62,1.38.61,3.68,1,4.7.23,5.19-3.72,11.07-3.94,17-4,9.25-.11,18.51,0,26.69,0,7-15.83,3.44-30.72,3.15-45.45-.11-5.61-.65-11.22-.78-16.83-.23-9.72,6.72-17.17,16-17.41,8.85-.22,16.36,6.92,16.87,16.31q1.14,20.65,2,41.34c.17,4,1.46,7.24,5.28,9.07.29,3.19.58,6.39.86,9.4h21.41v-6.12c-5,0-9.75.38-14.42-.14C330.05,371.35,327.5,369.61,324.88,368.51Zm241.87-74.69a25.67,25.67,0,1,0,25.77,25.51A25.66,25.66,0,0,0,566.75,293.82ZM285.42,387v2.64l231-2.27,0-2.6Zm-13.91,20.72a16.17,16.17,0,0,0-16.07-16.27c-8.64,0-16.09,7.28-16.15,15.74-.06,9.32,7.09,16.71,16.12,16.67A16.07,16.07,0,0,0,271.51,407.72Z" transform="translate(-201.97 -27.01)"/><path class="cls-1" d="M431.87,175.26a36.55,36.55,0,0,0,4.19,1.67,16.87,16.87,0,0,0,3.35.18c13.33.66,26.67,1.23,40,2.14,1.49.1,2.84,2.19,4.25,3.36-1.49,1.12-2.84,2.65-4.52,3.25s-3.42.12-5.16.12v1.35H599.92v7H507.18v28.76c-11.61.4-22.63-.33-33.57.28l0,2.08c1.77,0,3.54,0,5.31,0l32.65-.15c4.39,0,6.34,2.68,6.79,6.56s-2.31,6.8-6.65,7.18q-7.64.68-15.31.82c-20.81.39-41.63.67-62.44,1-3.88.06-7.49-.51-9.17-4.57s.1-7.1,4.78-10.51c-4.22-1.19-7.24-2.77-10.26-2.79-34.92-.25-69.83-.27-104.75-.35h-5.9l-.69-6.54c-4.86,0-9.74,0-14.61,0-5.77,0-11.54,0-17.3-.19-6.53-.2-10.56-4.17-10.39-10,.16-5.58,4.29-9.34,10.57-9.37,10.55-.07,21.09,0,31.81,0,.25-2,.46-3.71.71-5.76h69.11l.49-1.21c-2.65-1.45-5.15-3.4-8-4.28-11.28-3.49-22.57-7.09-34.07-9.73-4.76-1.09-10.16-.49-15.07.42-15.32,2.85-26.41-3.6-35-15.45-5-6.86-2.15-24.06,4.13-31.89,7.2-9,17.11-11.11,27.67-12.08,3.78-.35,7.53-1,11.17-1.42,0-5.33.05-10.24-.05-15.15a6.13,6.13,0,0,0-1-3.08c-6.18-9.35-12.43-18.65-18.93-28.36-2.64,1.86-5.14,3.51-7.53,5.32-2.57,1.93-5.26,3.64-8.16,1-3.07-2.79-1.88-5.74.73-8.32-2.48-1-5.43-1.4-6.6-3s-.23-4.38-.23-7.18a15.63,15.63,0,0,1-3-1.35,7.46,7.46,0,0,1-2.58-2.6c-.94-1.84,2-11.12,3.76-12.36,5.64-4,11.25-7.93,17-11.75,4.47-3,12.18-.4,14.27,4.52.47,1.11,1.39,2.71,2.3,2.86,4.82.79,5.79,3.87,5.08,8.33,1.3.13,2.52-.07,3.37.4,1.55.87,3.76,1.91,4.09,3.27a6.85,6.85,0,0,1-1.55,5.44c-2.13,2.3-5,3.95-7.6,5.95l9.46,14c7.9-7.6,16.7-10.56,26.92-6.46,8.87,3.56,13.29,10.53,14.5,19.87a30.34,30.34,0,0,0,1.95,6.18c1.19,3.3,3.39,6.54,3.48,9.84.12,5,2.47,8.27,4.94,12.25,6.64,10.65,11.92,22.12,8.91,35.24-3.64,15.87-17.35,25.3-33.58,23.63-.62-.06-1.24-.07-2.16-.12,11.94,7.06,22.39,2.37,31.41-7.21,8.82-9.34,10.89-20.73,7.67-33.11-.27-1.06-.61-2.11-1.31-4.51l9.15,6.65c7,5.09,13.92,10.25,21,15.23,2.91,2.06,3.36,4.28,1.37,7.13C424,164.87,426.16,170.63,431.87,175.26ZM326.18,197l0,2.6,177.15,1.59,0-2.63Zm19.61-66.38c-1.38,7.35,1.6,13.24,7.65,16a14.37,14.37,0,0,0,17.33-3.94c4.39-5.38,4.59-11.51.41-17.32C363.73,131.27,355.39,133.49,345.79,130.65Zm15.12-42a10.78,10.78,0,0,0-10.4-11.37,11.09,11.09,0,0,0-11.13,10.82,10.77,10.77,0,1,0,21.53.55Zm-17.34,22.55c2.41,5.51,7.5,8.16,13.06,6.79s8.94-5.61,8.72-11.33C355.11,111.8,355.11,111.8,343.57,111.18ZM349.13,171c-13.18-6-15.26-19.38-20.54-31.91C327.57,156.66,336.18,169.76,349.13,171Z" transform="translate(-201.97 -27.01)"/><path class="cls-1" d="M511.11,349.42c-10.55.41-21.09,1-31.64,1.19-13.13.29-26.27.24-39.41.49-3,.06-4.21-.63-4.24-4-.38-33.38-.93-66.77-1.42-100.16,0-.92.11-1.85.22-3.5h74.27v6.6H446.77v1.32c3.84,0,7.67,0,11.5,0,15.7,0,31.4-.13,47.1-.07,1.26,0,2.52,1,3.78,1.59-1.3.52-2.6,1.48-3.91,1.49-19.51.1-39,.07-58.54.07l0,1.76c1.57,0,3.15,0,4.72,0,17.78-.25,35.56-.55,53.34-.69,1.64,0,3.29,1,4.93,1.55l-.45,2.41H446.8l0,.94h62.27l.6,1.42c-1.58.61-3.15,1.73-4.73,1.75-15.38.23-30.76.28-46.13.37a56.86,56.86,0,0,0-12,.89h9.91l48.54-.17c.48,0,1-.16,1.42,0a32.4,32.4,0,0,1,2.79,1.74,14.58,14.58,0,0,1-2.57,1.39,8.62,8.62,0,0,1-2.39.07l-55.74.85a3,3,0,0,0-2.28.9c3.31,0,6.61,0,9.92,0,16.18-.23,32.35-.54,48.53-.66,1.67,0,3.34,1.08,5,1.67l-.47,2.25H447l0,1h62.52l.61,1.26c-1.23.61-2.43,1.7-3.68,1.75q-13.44.44-26.9.51c-10.87.08-21.74,0-32.62.92h9.44c16.34-.07,32.68-.18,49-.14,1.47,0,2.94.91,4.41,1.4-1.54.59-3.06,1.66-4.61,1.7-18.73.4-37.47.65-56.21.95a2.83,2.83,0,0,0-2.29.92c1.51,0,3,0,4.52,0,18.1-.26,36.2-.55,54.3-.77,2,0,5-.94,4,4.07H447.84l0,.58c18.68,0,37.37,0,56.06.06,2,0,3.94.84,5.92,1.29-2,.68-4,1.92-5.94,2-17,.32-34,.43-50.93.6a11.54,11.54,0,0,0-5.24.87c2.81,0,5.62,0,8.44,0l49.5-.25a9.61,9.61,0,0,1,2.85.13,2.12,2.12,0,0,1,1.26,1.56,2.07,2.07,0,0,1-1.38,1.42,22.16,22.16,0,0,1-3.83.15l-55.26.91a3.79,3.79,0,0,0-1.8.46h62.21c1,4.1-2,3.37-4.24,3.39q-26.19.19-52.38.35a8.87,8.87,0,0,0-5.16,1.11c3.32,0,6.64,0,10,0,16-.18,32-.4,48-.5,1.33,0,2.66.86,4,1.32-1.36.64-2.71,1.83-4.06,1.84-19.36.12-38.72.08-58.08.08l0,1.52c2.47,0,4.94,0,7.42,0l50.46-.3a7,7,0,0,1,2.38.06,8.25,8.25,0,0,1,2,1.53c-.61.55-1.14,1.42-1.84,1.58a18.07,18.07,0,0,1-3.83.11H447.73c0,.45,0,.9,0,1.35h63.48c-1.68,1.54-2.5,2.89-3.58,3.16a24.89,24.89,0,0,1-5.74.26q-24.51.19-49,.35a15.74,15.74,0,0,0-4.94.7c9.66,0,19.32,0,29,0,9.93,0,19.86-.15,29.79-.09,1.17,0,2.33.89,3.5,1.36-1.21.62-2.42,1.74-3.64,1.77-17.94.34-35.88.54-53.81.77a11.06,11.06,0,0,0-5.17.87h6.54c17.3-.11,34.6-.26,51.9-.29,1.53,0,3.06.82,4.58,1.26-.13.79-.27,1.58-.41,2.37H447.65v1h62.65l.52,1.49c-1.63.6-3.25,1.7-4.89,1.72-17.3.28-34.6.38-51.9.53a11.77,11.77,0,0,0-5.34.85c5,0,10.07,0,15.11,0,13.94-.09,27.87-.24,41.81-.23,1.65,0,3.3.91,4.95,1.39-1.72.6-3.43,1.69-5.16,1.73-17.62.36-35.23.55-52.85.79a9.19,9.19,0,0,0-4.7.88h5c18.1-.15,36.2-.35,54.31-.38,1.32,0,2.64,1.11,4,1.7-.21.74-.42,1.47-.64,2.2h-62.6v.82h62.76c.92,3.93-2,3.22-4,3.24q-25.23.27-50.45.44a24,24,0,0,0-7.38.8c8.18,0,16.37,0,24.56,0,11.21-.05,22.42-.2,33.63-.15,1.29,0,2.57,1,3.86,1.47-1.26.56-2.51,1.6-3.78,1.62-17.77.36-35.55.58-53.33.83a15.07,15.07,0,0,0-5.17.65h62c.14,1.3.28,2.66.43,4Z" transform="translate(-201.97 -27.01)"/><path class="cls-1" d="M343.68,338.59h63.73c.7,4-2.41,3.36-4.5,3.38-13.93.16-27.87.2-41.8.26A129.11,129.11,0,0,0,344,343c11.23,0,22.45,0,33.67,0,8.81,0,17.62-.14,26.42-.08,1.21,0,2.4.83,3.6,1.28-1.2.65-2.4,1.84-3.61,1.86-19.06.37-38.11.58-57.17.83a4.53,4.53,0,0,0-2.82.66h63.54v5.3H333.08c-.61-34.9-1.23-70.28-1.87-106.62h74.64c0,.45.23,1.52.25,2.59a32.8,32.8,0,0,1-.3,3.39H342.43l0,1.23c5.86,0,11.72,0,17.57,0,14.1-.06,28.19-.18,42.29-.14,1.28,0,2.56,1,3.84,1.5-1.27.55-2.53,1.56-3.81,1.59-18.58.34-37.15.56-55.73.8a8.53,8.53,0,0,0-4.71,1c1.47,0,2.94,0,4.41,0,18.42-.2,36.84-.45,55.26-.55,1.64,0,3.3.92,5,1.41l-.45,2.31H342v1.07h64c.82,3.76-1.92,3.26-4,3.28q-17.78.15-35.55.2a207.4,207.4,0,0,0-24,1c1.21.06,2.42.19,3.63.18q26.67-.14,53.34-.31a12.5,12.5,0,0,1,2.87,0,36.2,36.2,0,0,1,4,1.43c-1.24.58-2.46,1.64-3.71,1.67q-18,.51-36,.7c-8.15.09-16.29,0-24.47,1.11h4.13c18.42-.23,36.84-.5,55.26-.65,2,0,5.25-1.21,4.7,3.86H342.41v1h63.95l.51,1.54c-1.65.57-3.29,1.64-4.95,1.66-18.1.23-36.19.3-54.29.42a9.78,9.78,0,0,0-4.62.78h16.68l43.25-.14c.16,0,.35-.06.47,0,1.08.58,2.14,1.18,3.21,1.77-1,.48-2,1.34-3.08,1.37-10.4.31-20.81.56-31.22.66-10.06.11-20.12,0-30.19,1.18,1.44,0,2.89,0,4.33,0q27.63-.37,55.26-.72c2.13,0,5.16-1,4.94,4H343v1h63.88c.79,4.08-2.3,3.16-4.22,3.19-16.81.19-33.63.28-50.45.39-3,0-6,0-9.05,1h4.81l54.3-.37a14.82,14.82,0,0,1,3.34.12,2.06,2.06,0,0,1,1.32,1.48,2,2,0,0,1-1.33,1.46,21.05,21.05,0,0,1-3.82.17l-56.21.82a3.81,3.81,0,0,0-2.77,1c1.52,0,3,0,4.56,0,18.41-.26,36.83-.55,55.25-.76,2.09,0,5.23-.91,4,4.12H342.9v.87h63.63l.72,1c-1.14.69-2.26,1.93-3.42,2-8,.31-16,.45-24,.49-12.28.07-24.56,0-36.84.94,4.92,0,9.84,0,14.76,0,15.21-.06,30.43-.18,45.65-.13,1.21,0,2.41,1.11,3.62,1.71-1.16.48-2.31,1.35-3.49,1.38q-17.28.5-34.58.72c-8.72.11-17.43,0-26.13.62q23.49,0,47,0c4.65,0,9.29-.32,13.93-.17,1.29,0,2.55,1.2,3.82,1.84l-.59,2.06H343.3v1h63.59l.53,1.4c-1.31.53-2.6,1.49-3.91,1.51-15.69.29-31.39.45-47.08.62a67.62,67.62,0,0,0-13.15.92c6.85,0,13.7,0,20.54,0,13-.07,25.95-.22,38.92-.2,1.47,0,2.94.95,4.41,1.45-1.4.58-2.78,1.63-4.19,1.66-19,.4-38.11.66-57.16.95a5.21,5.21,0,0,0-2.78.54h64c1.09,4.08-1.93,3.3-4.15,3.33q-27.63.36-55.25.67c-1.24,0-2.48.18-5,.38,13,0,24.75,0,36.49,0,8,0,16-.16,24,0,1.39,0,2.76,1.08,4.14,1.66-1.32.53-2.63,1.49-4,1.51-18.09.32-36.19.52-54.29.74a11.79,11.79,0,0,0-5.19.82c4.4,0,8.79,0,13.18,0l46.13-.27a9.63,9.63,0,0,1,2.85.13,2.25,2.25,0,0,1,1.36,1.55c0,.49-.81,1.31-1.39,1.45a15.51,15.51,0,0,1-3.35.14l-56.68.91c-.77,0-1.54.12-2.3.19Z" transform="translate(-201.97 -27.01)"/><path class="cls-1" d="M342.4,641c1.48,7.56-1.74,12.93-7.67,17.32-1.25.93-2,3.43-1.91,5.17.58,13.78,1.35,27.56,2.18,41.33.45,7.46-2,13.43-7.94,18.13a6,6,0,0,0-1.72,4.38c.34,11,.91,22.08,1.42,33.32l-4,1V771c-6.26,1.93-6.26,1.93-7.39-8.54l-4.78-1c-.53-10.38-1.18-20.76-1.54-31.16-.12-3.27-.78-5.47-3.91-7.4-6-3.71-8.33-9.78-8.65-16.79-.61-13.79-1.48-27.56-2.14-41.35-.14-3.07-.92-5.26-3.84-7-6-3.66-9.43-9-8.36-16.71-4.52-1.27-7.39-4.06-7.63-8.77a8.47,8.47,0,0,1,8.59-8.6q29.55-.44,59.1-.36a8.11,8.11,0,0,1,8.27,7.25c.55,4.57-1.34,7.77-5.63,9.48C344.1,640.38,343.37,640.65,342.4,641Z" transform="translate(-201.97 -27.01)"/><path class="cls-1" d="M368.3,243.26c-12.79,0-25.57,0-38.36,0-4,0-7.35-1-8.49-5.38-1.21-4.62,1.67-8.63,6.71-9,6.37-.41,12.77-.5,19.16-.62q28.29-.52,56.57-1a30.61,30.61,0,0,1,4.79.14c4.12.59,6.81,3.7,6.65,7.49a7,7,0,0,1-7.25,6.8c-13.26.13-26.52.05-39.78.05Z" transform="translate(-201.97 -27.01)"/><path class="cls-1" d="M431.87,175.26c-5.71-4.63-7.88-10.39-5.55-17.57,2.23-4.78,5.51-8,11.23-7.91,9.42.19,18.85.12,28.27.53,5.52.24,9.59,6.2,9.47,13-.11,7-4.41,12.81-10.44,12.83C453.86,176.2,442.87,175.6,431.87,175.26Z" transform="translate(-201.97 -27.01)"/><path class="cls-1" d="M567.56,176.42c-4.65,0-9.3.15-13.93,0-6.45-.26-10.88-5.55-11-12.78-.08-6.69,4.4-13,10.23-13.14,9.91-.26,19.86-.18,29.76.38,5.92.33,10,6.67,9.71,13.46-.34,7-4.71,12.21-10.87,12.49-4.64.21-9.29,0-13.93,0Z" transform="translate(-201.97 -27.01)"/><path class="cls-1" d="M310.34,603.14c-8.8,0-17.59,0-26.39,0-5.13,0-7.79-2.2-7.89-6.32s2.58-6.65,7.59-6.72c18.08-.27,36.15-.4,54.22-.59,4.18,0,6.71,2,7.18,6.13.43,3.74-2.47,6.85-6.88,7-9.27.2-18.55.06-27.83.06Z" transform="translate(-201.97 -27.01)"/><path class="cls-1" d="M308.68,556c-8.64,0-17.28,0-25.92,0-5,0-7.88-2.36-8-6.32s2.8-6.58,7.69-6.65q26.88-.42,53.75-.65c4.92,0,7.67,2.5,7.62,6.63,0,3.94-2.62,6.46-7.32,6.53-9.27.15-18.55,0-27.82,0Z" transform="translate(-201.97 -27.01)"/><path class="cls-1" d="M308.85,540.43c-8.64,0-17.29,0-25.93,0-5.33,0-8.33-2.3-8.5-6.32-.19-4.31,2.79-6.88,8.41-6.94q26.42-.27,52.83-.38c5,0,7.9,2.52,7.92,6.39s-2.83,6.24-7.84,6.54c-.79,0-1.6.06-2.4.06H308.85Z" transform="translate(-201.97 -27.01)"/><path class="cls-1" d="M310,587.63c-8.64,0-17.28,0-25.92,0-5.22,0-8.36-2.46-8.54-6.43-.18-4.15,3.11-7,8.53-7,17.28-.16,34.57-.22,51.85-.31.8,0,1.59.15,2.39.17,4.12.09,6.27,2.38,6.28,6.3s-2.23,6.33-6.27,6.37c-9.44.09-18.88,0-28.32,0Z" transform="translate(-201.97 -27.01)"/><path class="cls-1" d="M310.63,618.88c-8.65,0-17.29,0-25.94,0-5.28,0-8.32-2.43-8.34-6.52s2.95-6.43,8.3-6.53q25.69-.47,51.39-.85a19.76,19.76,0,0,1,2.88.09c4,.52,6.67,2.65,6.52,6.88s-2.91,6.39-6.95,6.45c-9.28.14-18.57.05-27.86.05Z" transform="translate(-201.97 -27.01)"/><path class="cls-1" d="M308.46,524.76q-13,0-25.91,0c-5.39,0-8.3-2.24-8.45-6.39-.15-4.38,2.8-6.77,8.45-6.83l50.87-.63c.8,0,1.6,0,2.4,0,4.51.24,7.3,2.79,7.3,6.62s-2.78,6.49-7.3,6.54c-9.12.09-18.24,0-27.36,0Z" transform="translate(-201.97 -27.01)"/><path class="cls-1" d="M309.82,558c8.65,0,17.29,0,25.94,0,5.45,0,8.73,2.65,8.61,6.83s-3.15,6.37-8.46,6.43q-25,.29-50,.53c-1.58,0-3.16-.26-4.75-.33-4.22-.19-6.06-2.71-5.86-6.6s2.69-6.08,6.62-6.11c9.29-.08,18.58,0,27.86,0Z" transform="translate(-201.97 -27.01)"/><path class="cls-1" d="M568.82,185.92H542c-2.54,0-5.15-.25-5.17-3.54,0-3.48,2.77-3.35,5.21-3.32q26.14.27,52.28.59c.8,0,1.78-.19,2.35.19a41.47,41.47,0,0,1,3.91,3.24c-1.46,1.15-2.81,3.08-4.4,3.31-3.28.46-6.69,0-10,0-5.75,0-11.51,0-17.27,0Z" transform="translate(-201.97 -27.01)"/><path class="cls-1" d="M566.75,293.82A25.67,25.67,0,1,1,541,319.38,25.7,25.7,0,0,1,566.75,293.82ZM566.53,341a21.61,21.61,0,0,0,21.88-21.45c.07-11.75-10-21.93-21.65-21.86a21.63,21.63,0,0,0-21.48,21.37A21.36,21.36,0,0,0,566.53,341Z" transform="translate(-201.97 -27.01)"/><path class="cls-1" d="M285.42,387l231-2.23,0,2.6-231,2.27Z" transform="translate(-201.97 -27.01)"/><path class="cls-1" d="M271.51,407.72a16.07,16.07,0,0,1-16.1,16.14c-9,0-16.18-7.35-16.12-16.67.06-8.46,7.51-15.72,16.15-15.74A16.17,16.17,0,0,1,271.51,407.72ZM255.4,421a13.07,13.07,0,0,0,13.41-13.21,13.6,13.6,0,0,0-13.14-13.76,14,14,0,0,0-13.78,13.73A13.33,13.33,0,0,0,255.4,421Z" transform="translate(-201.97 -27.01)"/><path class="cls-1" d="M324.88,368.51c2.62,1.1,5.17,2.84,7.88,3.14,4.67.52,9.44.14,14.42.14v6.12H325.77c-.28-3-.57-6.21-.86-9.4Z" transform="translate(-201.97 -27.01)"/><path class="cls-1" d="M326.18,197l177.14,1.56,0,2.63-177.15-1.59Z" transform="translate(-201.97 -27.01)"/><path class="cls-1" d="M345.79,130.65c9.6,2.84,17.94.62,25.39-5.25,4.18,5.81,4,11.94-.41,17.32a14.37,14.37,0,0,1-17.33,3.94C347.39,143.89,344.41,138,345.79,130.65Z" transform="translate(-201.97 -27.01)"/><path class="cls-1" d="M360.91,88.63a10.77,10.77,0,1,1-21.53-.55,11.09,11.09,0,0,1,11.13-10.82A10.78,10.78,0,0,1,360.91,88.63Z" transform="translate(-201.97 -27.01)"/><path class="cls-1" d="M343.57,111.18c11.54.62,11.54.62,21.78-4.54.22,5.72-3,9.92-8.72,11.33S346,116.69,343.57,111.18Z" transform="translate(-201.97 -27.01)"/><path class="cls-1" d="M349.13,171c-12.95-1.2-21.56-14.3-20.54-31.91C333.87,151.58,336,164.92,349.13,171Z" transform="translate(-201.97 -27.01)"/><path class="cls-1" d="M566.53,341a21.36,21.36,0,0,1-21.25-21.94,21.63,21.63,0,0,1,21.48-21.37c11.65-.07,21.72,10.11,21.65,21.86A21.61,21.61,0,0,1,566.53,341Zm-7.6-21.84a7.85,7.85,0,0,0,7.44,8.32,8,8,0,1,0,.54-16.08A7.75,7.75,0,0,0,558.93,319.2Z" transform="translate(-201.97 -27.01)"/><path class="cls-1" d="M255.4,421a13.33,13.33,0,0,1-13.51-13.24,14,14,0,0,1,13.78-13.73,13.6,13.6,0,0,1,13.14,13.76A13.07,13.07,0,0,1,255.4,421Z" transform="translate(-201.97 -27.01)"/><path class="cls-1" d="M558.93,319.2a7.75,7.75,0,0,1,8-7.76,8,8,0,1,1-.54,16.08A7.85,7.85,0,0,1,558.93,319.2Z" transform="translate(-201.97 -27.01)"/></svg>